<!-- icons.svg -->
<svg xmlns="http://www.w3.org/2000/svg" style="display: none;">

    <symbol id="icon-bars">
        <path stroke="currentColor" stroke-linecap="round" stroke-width="2" d="M5 7h14M5 12h14M5 17h14"/>
    </symbol>

    <symbol id="icon-close">
        <path stroke="currentColor" stroke-linecap="round" stroke-linejoin="round" stroke-width="2" d="M6 18 17.94 6M18 18 6.06 6"/>
    </symbol>

    <symbol id="icon-close-circle">
        <path stroke="currentColor" stroke-linecap="round" stroke-linejoin="round" stroke-width="2" d="m15 9-6 6m0-6 6 6m6-3a9 9 0 1 1-18 0 9 9 0 0 1 18 0Z"/>
    </symbol>

    <symbol id="icon-shopping-bag">
        <path stroke="currentColor" stroke-linecap="round" stroke-linejoin="round" stroke-width="2" d="M9 10V6a3 3 0 0 1 3-3v0a3 3 0 0 1 3 3v4m3-2 .917 11.923A1 1 0 0 1 17.92 21H6.08a1 1 0 0 1-.997-1.077L6 8h12Z"/>
    </symbol>

    <symbol id="icon-user-circle">
        <path stroke="currentColor" stroke-linecap="round" stroke-linejoin="round" stroke-width="2" d="M12 21a9 9 0 1 0 0-18 9 9 0 0 0 0 18Zm0 0a8.949 8.949 0 0 0 4.951-1.488A3.987 3.987 0 0 0 13 16h-2a3.987 3.987 0 0 0-3.951 3.512A8.948 8.948 0 0 0 12 21Zm3-11a3 3 0 1 1-6 0 3 3 0 0 1 6 0Z"/>
    </symbol>

    <symbol id="icon-facebook">
        <path fill-rule="evenodd" d="M13.135 6H15V3h-1.865a4.147 4.147 0 0 0-4.142 4.142V9H7v3h2v9.938h3V12h2.021l.592-3H12V6.591A.6.6 0 0 1 12.592 6h.543Z" clip-rule="evenodd"/>
    </symbol>

    <symbol id="icon-instagram">
        <path fill="currentColor" fill-rule="evenodd" d="M3 8a5 5 0 0 1 5-5h8a5 5 0 0 1 5 5v8a5 5 0 0 1-5 5H8a5 5 0 0 1-5-5V8Zm5-3a3 3 0 0 0-3 3v8a3 3 0 0 0 3 3h8a3 3 0 0 0 3-3V8a3 3 0 0 0-3-3H8Zm7.597 2.214a1 1 0 0 1 1-1h.01a1 1 0 1 1 0 2h-.01a1 1 0 0 1-1-1ZM12 9a3 3 0 1 0 0 6 3 3 0 0 0 0-6Zm-5 3a5 5 0 1 1 10 0 5 5 0 0 1-10 0Z" clip-rule="evenodd"/>
    </symbol>

    <symbol id="icon-youtube">
         <path fill-rule="evenodd" d="M21.7 8.037a4.26 4.26 0 0 0-.789-1.964 2.84 2.84 0 0 0-1.984-.839c-2.767-.2-6.926-.2-6.926-.2s-4.157 0-6.928.2a2.836 2.836 0 0 0-1.983.839 4.225 4.225 0 0 0-.79 1.965 30.146 30.146 0 0 0-.2 3.206v1.5a30.12 30.12 0 0 0 .2 3.206c.094.712.364 1.39.784 1.972.604.536 1.38.837 2.187.848 1.583.151 6.731.2 6.731.2s4.161 0 6.928-.2a2.844 2.844 0 0 0 1.985-.84 4.27 4.27 0 0 0 .787-1.965 30.12 30.12 0 0 0 .2-3.206v-1.516a30.672 30.672 0 0 0-.202-3.206Zm-11.692 6.554v-5.62l5.4 2.819-5.4 2.801Z" clip-rule="evenodd"/>
    </symbol>

    <symbol id="icon-whatsapp">
        <path fill="currentColor" fill-rule="evenodd" d="M12 4a8 8 0 0 0-6.895 12.06l.569.718-.697 2.359 2.32-.648.379.243A8 8 0 1 0 12 4ZM2 12C2 6.477 6.477 2 12 2s10 4.477 10 10-4.477 10-10 10a9.96 9.96 0 0 1-5.016-1.347l-4.948 1.382 1.426-4.829-.006-.007-.033-.055A9.958 9.958 0 0 1 2 12Z" clip-rule="evenodd"/>
        <path fill="currentColor" d="M16.735 13.492c-.038-.018-1.497-.736-1.756-.83a1.008 1.008 0 0 0-.34-.075c-.196 0-.362.098-.49.291-.146.217-.587.732-.723.886-.018.02-.042.045-.057.045-.013 0-.239-.093-.307-.123-1.564-.68-2.751-2.313-2.914-2.589-.023-.04-.024-.057-.024-.057.005-.021.058-.074.085-.101.08-.079.166-.182.249-.283l.117-.14c.121-.14.175-.25.237-.375l.033-.066a.68.68 0 0 0-.02-.64c-.034-.069-.65-1.555-.715-1.711-.158-.377-.366-.552-.655-.552-.027 0 0 0-.112.005-.137.005-.883.104-1.213.311-.35.22-.94.924-.94 2.16 0 1.112.705 2.162 1.008 2.561l.041.06c1.161 1.695 2.608 2.951 4.074 3.537 1.412.564 2.081.63 2.461.63.16 0 .288-.013.4-.024l.072-.007c.488-.043 1.56-.599 1.804-1.276.192-.534.243-1.117.115-1.329-.088-.144-.239-.216-.43-.308Z"/>
    </symbol>

    <symbol id="icon-envelope">
        <path stroke="currentColor" stroke-linecap="round" stroke-width="2" d="m3.5 5.5 7.893 6.036a1 1 0 0 0 1.214 0L20.5 5.5M4 19h16a1 1 0 0 0 1-1V6a1 1 0 0 0-1-1H4a1 1 0 0 0-1 1v12a1 1 0 0 0 1 1Z"/>
    </symbol>

    <symbol id="icon-angle-down">
        <path stroke="currentColor" stroke-linecap="round" stroke-linejoin="round" stroke-width="2" d="m19 9-7 7-7-7"/>
    </symbol>

    <symbol id="icon-angle-left">
        <path stroke="currentColor" stroke-linecap="round" stroke-linejoin="round" stroke-width="2" d="m15 19-7-7 7-7"/>
    </symbol>

    <symbol id="icon-angle-right">
        <path stroke="currentColor" stroke-linecap="round" stroke-linejoin="round" stroke-width="2" d="m9 5 7 7-7 7"/>
    </symbol>

    <symbol id="icon-circle-plus">
        <path fill-rule="evenodd" d="M2 12C2 6.477 6.477 2 12 2s10 4.477 10 10-4.477 10-10 10S2 17.523 2 12Zm11-4.243a1 1 0 1 0-2 0V11H7.757a1 1 0 1 0 0 2H11v3.243a1 1 0 1 0 2 0V13h3.243a1 1 0 1 0 0-2H13V7.757Z" clip-rule="evenodd"/>
    </symbol>

    <symbol id="icon-circle-minus">
          <path fill-rule="evenodd" d="M2 12C2 6.477 6.477 2 12 2s10 4.477 10 10-4.477 10-10 10S2 17.523 2 12Zm5.757-1a1 1 0 1 0 0 2h8.486a1 1 0 1 0 0-2H7.757Z" clip-rule="evenodd"/>
    </symbol>
</svg>
